<?xml version="1.0" encoding="utf-8"?>
<!-- Generator: Adobe Illustrator 22.1.0, SVG Export Plug-In . SVG Version: 6.00 Build 0)  -->
<svg version="1.1" id="レイヤー_1" xmlns="http://www.w3.org/2000/svg" xmlns:xlink="http://www.w3.org/1999/xlink" x="0px"
	 y="0px" viewBox="0 0 500 500" style="enable-background:new 0 0 500 500;" xml:space="preserve">
<style type="text/css">
	.st0{fill:none;}
	.st1{fill:#E6706A;}
</style>
<path class="st0" d="M250.4,487.4c-131,0-237.6-106.6-237.6-237.6S119.4,12.1,250.4,12.1s237.6,106.6,237.6,237.6
	S381.5,487.4,250.4,487.4z"/>
<path class="st1" d="M250.4,495.5C114.9,495.5,4.7,385.3,4.7,249.8S114.9,4,250.4,4s245.8,110.2,245.8,245.8S386,495.5,250.4,495.5z
	 M250.4,22.4c-125.4,0-227.4,102-227.4,227.4s102,227.4,227.4,227.4s227.4-102,227.4-227.4S375.8,22.4,250.4,22.4z"/>
<path class="st1" d="M247.2,171.7c-2.2-4.2-19.7-24.8-36.5-24.8c-16.9,0-27,12.6-32.9,27c-6-14.4-16-27-32.9-27
	c-16.8,0-34.3,20.6-36.5,24.8c-7.1,12-12.5,28.5-12.5,43.6c0,31.2,17.5,58.3,43.3,72l15.1-29.5c-15-8.2-25.2-24.2-25.2-42.5
	c0-10.7,0.8-15.5,5-22.3c4-6.4,8.8-8.8,11.4-8.9c16.8-1,19.8,47,19.8,47h3.9h17.3h4c0,0,3-48,19.8-47c2.5,0.2,7.4,2.5,11.4,8.9
	c4.2,6.8,5,11.6,5,22.3c0,18.3-10.2,34.3-25.2,42.5l15.1,29.5c25.8-13.7,43.3-40.8,43.3-72C259.7,200.2,254.3,183.8,247.2,171.7z"/>
<path class="st1" d="M388.3,153h-13.7H355v19.6h19.6v62.7l0,0c0,0,0,0,0,0.1c0,77.3-62.6,139.9-139.9,139.9
	c-48.8,0-91.7-25-116.8-62.9l-21.1,21.1c30.7,43,81,71.2,137.9,71.2c93.5,0,169.3-75.8,169.3-169.3c0,0,0,0,0-0.1V153H388.3z"/>
</svg>
