<svg width="48" height="48" viewBox="0 0 48 48" fill="none" xmlns="http://www.w3.org/2000/svg">
<g clip-path="url(#clip0_99_2)">
<path d="M24.0381 46.7904C11.4621 46.7904 1.22852 36.5568 1.22852 23.9808C1.22852 11.4048 11.4621 1.16159 24.0381 1.16159C36.6141 1.16159 46.8477 11.3952 46.8477 23.9712C46.8477 36.5472 36.6237 46.7904 24.0381 46.7904Z" fill="white"/>
<path d="M24.0384 47.568C11.0304 47.568 0.451172 36.9888 0.451172 23.9808C0.451172 10.9728 11.0304 0.384003 24.0384 0.384003C37.0464 0.384003 47.6352 10.9632 47.6352 23.9808C47.6352 36.9984 37.056 47.568 24.0384 47.568ZM24.0384 2.1504C12 2.1504 2.20797 11.9424 2.20797 23.9808C2.20797 36.0192 12 45.8112 24.0384 45.8112C36.0768 45.8112 45.8688 36.0192 45.8688 23.9808C45.8688 11.9424 36.0768 2.1504 24.0384 2.1504Z" fill="#E6706A"/>
<path d="M23.7318 16.4832C23.5206 16.08 21.8406 14.1024 20.2278 14.1024C18.6054 14.1024 17.6358 15.312 17.0694 16.6944C16.4934 15.312 15.5334 14.1024 13.911 14.1024C12.2982 14.1024 10.6182 16.08 10.407 16.4832C9.72543 17.6352 9.20703 19.2192 9.20703 20.6688C9.20703 23.664 10.887 26.2656 13.3638 27.5808L14.8134 24.7488C13.3734 23.9616 12.3942 22.4256 12.3942 20.6688C12.3942 19.6416 12.471 19.1808 12.8742 18.528C13.2582 17.9136 13.719 17.6832 13.9686 17.6736C15.5814 17.5776 15.8694 22.1856 15.8694 22.1856H16.2438H17.9046H18.2886C18.2886 22.1856 18.5766 17.5776 20.1894 17.6736C20.4294 17.6928 20.8998 17.9136 21.2838 18.528C21.687 19.1808 21.7638 19.6416 21.7638 20.6688C21.7638 22.4256 20.7846 23.9616 19.3446 24.7488L20.7942 27.5808C23.271 26.2656 24.951 23.664 24.951 20.6688C24.9318 19.2192 24.4134 17.6448 23.7318 16.4832Z" fill="#E6706A"/>
<path d="M37.277 14.688H35.9618H34.0802V16.5696H35.9618V22.5888C35.9618 22.5888 35.9618 22.5888 35.9618 22.5984C35.9618 30.0192 29.9522 36.0288 22.5314 36.0288C17.8466 36.0288 13.7282 33.6288 11.3186 29.9904L9.29297 32.016C12.2402 36.144 17.069 38.8512 22.5314 38.8512C31.5074 38.8512 38.7842 31.5744 38.7842 22.5984C38.7842 22.5984 38.7842 22.5984 38.7842 22.5888V14.688H37.277Z" fill="#E6706A"/>
</g>
<defs>
<clipPath id="clip0_99_2">
<rect width="48" height="48" fill="white"/>
</clipPath>
</defs>
</svg>
